#!OML:ASF H:\Dans Jumps\Project 1\Capture day 1\Session 1\subject.ASF
:FULLY-SPECIFIED
:DEGREES
238
root 0.491195 14.7819 -16.5743 21.6448 -1.01222 -2.03169
lowerback 20.4603 0.357337 -0.727139
upperback 9.09448 0.40672 2.41074
thorax -1.6187 0.123519 2.89126
lowerneck -16.8393 0.755982 -1.29118
upperneck 10.4538 1.60619 -2.01629
head 5.9193 0.561502 -0.276476
rclavicle -8.94531e-015 1.72943e-014
rhumerus -31.6366 -9.33658 -77.6016
rradius 25.5896
rwrist 26.6921
rhand -19.5899 -25.6875
rfingers 7.12502
rthumb 6.73575 -55.5604
lclavicle -8.94531e-015 1.72943e-014
lhumerus -31.0918 -7.87494 90.1439
lradius 20.9152
lwrist 17.1209
lhand -29.6517 -6.26305
lfingers 7.12502
lthumb -2.98106 23.6959
rfemur -70.1762 -3.63629 22.9264
rtibia 73.2887
rfoot -24.1127 -4.52977
rtoes 6.22948
lfemur -70.2296 9.81356 -22.9433
ltibia 73.1322
lfoot -24.0369 7.29506
ltoes -6.57221
239
root 0.49182 14.7501 -16.5766 21.7837 -1.00799 -2.04731
lowerback 20.5985 0.372352 -0.741987
upperback 9.0985 0.424165 2.42229
thorax -1.6851 0.131887 2.90899
lowerneck -16.8971 0.755226 -1.28847
upperneck 10.3383 1.60137 -2.00448
head 5.89182 0.561497 -0.273625
rclavicle 1.31198e-014 -8.34896e-015
rhumerus -31.863 -9.25809 -77.5826
rradius 25.5732
rwrist 26.7114
rhand -19.5522 -25.6173
rfingers 7.12502
rthumb 6.77209 -55.489
lclavicle 1.31198e-014 -8.34896e-015
lhumerus -31.3536 -7.82621 90.1582
lradius 20.7991
lwrist 17.1338
lhand -29.6653 -6.27715
lfingers 7.12502
lthumb -2.99424 23.6816
rfemur -70.579 -3.60418 22.9459
rtibia 73.675
rfoot -24.2204 -4.61885
rtoes 6.19786
lfemur -70.6422 9.83547 -22.9791
ltibia 73.5299
lfoot -24.1867 7.32915
ltoes -6.66785
240
root 0.492561 14.7183 -16.5781 21.921 -1.00113 -2.05567
lowerback 20.7375 0.385536 -0.760064
upperback 9.09781 0.438717 2.43274
thorax -1.75674 0.138898 2.92798
lowerneck -16.9619 0.755184 -1.27992
upperneck 10.2279 1.59763 -2.00097
head 5.86722 0.561454 -0.274226
rclavicle 4.96962e-015 -1.13307e-014
rhumerus -32.1034 -9.18422 -77.5567
rradius 25.5577
rwrist 26.7328
rhand -19.52 -25.5541
rfingers 7.12502
rthumb 6.80324 -55.4248
lclavicle 4.96962e-015 -1.13307e-014
lhumerus -31.6312 -7.76855 90.1661
lradius 20.6862
lwrist 17.1769
lhand -29.694 -6.32631
lfingers 7.12502
lthumb -3.02192 23.632
rfemur -70.9784 -3.57991 22.9588
rtibia 74.065
rfoot -24.3327 -4.7075
rtoes 6.16489
lfemur -71.0488 9.84772 -23.0197
ltibia 73.9266
lfoot -24.336 7.37311
ltoes -6.76945
241
root 0.49345 14.6864 -16.5786 22.0578 -0.991555 -2.05731
lowerback 20.8755 0.396904 -0.781186
upperback 9.09258 0.450468 2.44355
thorax -1.83264 0.144566 2.94968
lowerneck -17.0285 0.754421 -1.27519
upperneck 10.1169 1.59419 -1.99993
head 5.84276 0.561186 -0.274961
rclavicle -8.54774e-015 -2.17669e-014
rhumerus -32.3584 -9.11486 -77.5213
rradius 25.5459
rwrist 26.7444
rhand -19.4874 -25.5
rfingers 7.12502
rthumb 6.83465 -55.3697
lclavicle -8.54774e-015 -2.17669e-014
lhumerus -31.9225 -7.69212 90.1668
lradius 20.5753
lwrist 17.2459
lhand -29.7325 -6.39562
lfingers 7.12502
lthumb -3.0591 23.5622
rfemur -71.3764 -3.56236 22.9654
rtibia 74.4593
rfoot -24.451 -4.8022
rtoes 6.1146
lfemur -71.4509 9.85015 -23.0648
ltibia 74.323
lfoot -24.4884 7.43091
ltoes -6.8842
242
root 0.494387 14.6543 -16.5784 22.1951 -0.979865 -2.05586
lowerback 21.0139 0.406264 -0.803588
upperback 9.08173 0.459539 2.4558
thorax -1.91455 0.149002 2.97425
lowerneck -17.0932 0.753058 -1.27671
upperneck 10.0031 1.59138 -1.99963
head 5.817 0.560966 -0.27488
rclavicle -3.97569e-015 -8.74653e-015
rhumerus -32.6296 -9.04996 -77.4756
rradius 25.5381
rwrist 26.7435
rhand -19.4463 -25.4559
rfingers 7.12502
rthumb 6.87431 -55.3243
lclavicle -3.97569e-015 -8.74653e-015
lhumerus -32.2297 -7.59522 90.1603
lradius 20.4657
lwrist 17.3331
lhand -29.7803 -6.47212
lfingers 7.12502
lthumb -3.10526 23.485
rfemur -71.7723 -3.54668 22.9667
rtibia 74.8586
rfoot -24.5825 -4.89335
rtoes 6.09602
lfemur -71.8504 9.84443 -23.1104
ltibia 74.7198
lfoot -24.6454 7.50954
ltoes -7.02866
243
root 0.495252 14.6221 -16.5774 22.3334 -0.967868 -2.05285
lowerback 21.1514 0.413362 -0.82707
upperback 9.06649 0.465526 2.46768
thorax -2.00056 0.152018 2.99973
lowerneck -17.1548 0.753042 -1.27897
upperneck 9.88359 1.5905 -2.00026
head 5.78898 0.561675 -0.274805
rclavicle 1.39149e-015 1.69961e-014
rhumerus -32.9132 -8.99633 -77.4204
rradius 25.5295
rwrist 26.7297
rhand -19.407 -25.4074
rfingers 7.12502
rthumb 6.9123 -55.2746
lclavicle 1.39149e-015 1.69961e-014
lhumerus -32.5538 -7.47747 90.1431
lradius 20.3577
lwrist 17.4202
lhand -29.8356 -6.54203
lfingers 7.12502
lthumb -3.15865 23.4143
rfemur -72.1664 -3.52867 22.9636
rtibia 75.2627
rfoot -24.7296 -4.98798
rtoes 6.09536
lfemur -72.2477 9.83396 -23.155
ltibia 75.1174
lfoot -24.8102 7.60616
ltoes -7.18927
244
root 0.496158 14.5898 -16.5758 22.4732 -0.956804 -2.04912
lowerback 21.2887 0.419846 -0.851969
upperback 9.04756 0.470501 2.4803
thorax -2.09033 0.154594 3.02706
lowerneck -17.2137 0.751052 -1.29003
upperneck 9.75667 1.58802 -1.99546
head 5.75801 0.561827 -0.271771
rclavicle -5.56597e-015 -2.52457e-014
rhumerus -33.2119 -8.94915 -77.3554
rradius 25.5277
rwrist 26.6978
rhand -19.3584 -25.3606
rfingers 7.12502
rthumb 6.9592 -55.2262
lclavicle -5.56597e-015 -2.52457e-014
lhumerus -32.8923 -7.3355 90.1153
lradius 20.252
lwrist 17.503
lhand -29.8544 -6.54389
lfingers 7.12502
lthumb -3.17684 23.4122
rfemur -72.5582 -3.50646 22.9556
rtibia 75.6706
rfoot -24.8963 -5.08614
rtoes 6.12654
lfemur -72.643 9.81869 -23.1979
ltibia 75.5158
lfoot -24.9822 7.721
ltoes -7.36421
245
root 0.496901 14.5573 -16.5735 22.6169 -0.949213 -2.04447
lowerback 21.4246 0.424276 -0.875588
upperback 9.02507 0.472832 2.48746
thorax -2.18308 0.156105 3.04841
lowerneck -17.2717 0.752638 -1.29888
upperneck 9.62334 1.58902 -1.98583
head 5.72482 0.564244 -0.26723
rclavicle 3.18055e-015 -6.16232e-015
rhumerus -33.5176 -8.91379 -77.2886
rradius 25.5264
rwrist 26.6437
rhand -19.2734 -25.3123
rfingers 7.12502
rthumb 7.04122 -55.1751
lclavicle 3.18055e-015 -6.16232e-015
lhumerus -33.2493 -7.18583 90.0743
lradius 20.1525
lwrist 17.5597
lhand -29.8639 -6.49509
lfingers 7.12502
lthumb -3.18599 23.4609
rfemur -72.9518 -3.47506 22.9426
rtibia 76.0824
rfoot -25.0852 -5.19363
rtoes 6.18344
lfemur -73.0401 9.80188 -23.2402
ltibia 75.9157
lfoot -25.1584 7.85772
ltoes -7.55457
246
root 0.497672 14.5246 -16.5707 22.7656 -0.945169 -2.04225
lowerback 21.5597 0.429497 -0.89818
upperback 8.99978 0.476274 2.49344
thorax -2.27845 0.158282 3.06768
lowerneck -17.3374 0.753911 -1.30642
upperneck 9.4905 1.58936 -1.97521
head 5.69305 0.566417 -0.262638
rclavicle 5.56597e-015 6.65929e-015
rhumerus -33.8317 -8.88929 -77.2153
rradius 25.5266
rwrist 26.5906
rhand -19.1847 -25.2682
rfingers 7.12502
rthumb 7.12686 -55.1282
lclavicle 5.56597e-015 6.65929e-015
lhumerus -33.6159 -7.0179 90.0193
lradius 20.0525
lwrist 17.5956
lhand -29.8286 -6.39079
lfingers 7.12502
lthumb -3.15192 23.5657
rfemur -73.3476 -3.43383 22.9282
rtibia 76.4963
rfoot -25.2966 -5.32027
rtoes 6.24519
lfemur -73.4401 9.7818 -23.278
ltibia 76.3176
lfoot -25.3361 8.01666
ltoes -7.75159
247
root 0.498474 14.4917 -16.5673 22.9227 -0.943735 -2.04339
lowerback 21.6923 0.435328 -0.916749
upperback 8.97223 0.481122 2.49743
thorax -2.37502 0.16133 3.08221
lowerneck -17.4159 0.75453 -1.31233
upperneck 9.35965 1.58876 -1.96425
head 5.66397 0.568108 -0.258252
rclavicle 2.18663e-015 1.31198e-014
rhumerus -34.1509 -8.87673 -77.137
rradius 25.5306
rwrist 26.5421
rhand -19.0723 -25.2286
rfingers 7.12502
rthumb 7.23534 -55.0849
lclavicle 2.18663e-015 1.31198e-014
lhumerus -33.988 -6.83013 89.9473
lradius 19.957
lwrist 17.6029
lhand -29.8012 -6.28518
lfingers 7.12502
lthumb -3.12548 23.6717
rfemur -73.751 -3.3822 22.9146
rtibia 76.9112
rfoot -25.5294 -5.47312
rtoes 6.27665
lfemur -73.8483 9.75707 -23.3105
ltibia 76.7224
lfoot -25.5132 8.2032
ltoes -7.95421
248
root 0.499261 14.4588 -16.5635 23.0859 -0.944556 -2.04486
lowerback 21.8283 0.441603 -0.934378
upperback 8.94136 0.486605 2.49912
thorax -2.47693 0.16486 3.0936
lowerneck -17.5042 0.755335 -1.31105
upperneck 9.23102 1.58777 -1.95907
head 5.63727 0.569332 -0.256867
rclavicle -1.09332e-014 1.26228e-014
rhumerus -34.4763 -8.87841 -77.0514
rradius 25.5341
rwrist 26.5115
rhand -18.9448 -25.1913
rfingers 7.12502
rthumb 7.35841 -55.0433
lclavicle -1.09332e-014 1.26228e-014
lhumerus -34.3678 -6.62976 89.861
lradius 19.8646
lwrist 17.5889
lhand -29.7377 -6.13865
lfingers 7.12502
lthumb -3.06411 23.8191
rfemur -74.1588 -3.32159 22.8986
rtibia 77.3266
rfoot -25.7843 -5.65775
rtoes 6.24685
lfemur -74.2602 9.7252 -23.3392
ltibia 77.1294
lfoot -25.6881 8.4252
ltoes -8.16899
